<mxfile host="app.diagrams.net" modified="2024-03-11T05:07:06.379Z" agent="Mozilla/5.0 (X11; Linux x86_64) AppleWebKit/537.36 (KHTML, like Gecko) Chrome/122.0.0.0 Safari/537.36" etag="K0qY-IPExtartzzDCrlA" version="24.0.2" type="github">
  <diagram name="Page-1" id="WYd1DO_Am6oGvoUfWORl">
    <mxGraphModel dx="821" dy="466" grid="1" gridSize="10" guides="1" tooltips="1" connect="1" arrows="1" fold="1" page="1" pageScale="1" pageWidth="827" pageHeight="1169" math="0" shadow="0">
      <root>
        <mxCell id="0" />
        <mxCell id="1" parent="0" />
        <mxCell id="wfsq0a6jWM2ucOWFd4YF-3" value="" style="edgeStyle=orthogonalEdgeStyle;rounded=0;orthogonalLoop=1;jettySize=auto;html=1;" parent="1" source="wfsq0a6jWM2ucOWFd4YF-1" target="wfsq0a6jWM2ucOWFd4YF-2" edge="1">
          <mxGeometry relative="1" as="geometry" />
        </mxCell>
        <mxCell id="wfsq0a6jWM2ucOWFd4YF-1" value="Start" style="ellipse;whiteSpace=wrap;html=1;fillColor=none;" parent="1" vertex="1">
          <mxGeometry x="140" y="110" width="140" height="80" as="geometry" />
        </mxCell>
        <mxCell id="wfsq0a6jWM2ucOWFd4YF-7" value="" style="edgeStyle=orthogonalEdgeStyle;rounded=0;orthogonalLoop=1;jettySize=auto;html=1;" parent="1" source="wfsq0a6jWM2ucOWFd4YF-2" target="wfsq0a6jWM2ucOWFd4YF-6" edge="1">
          <mxGeometry relative="1" as="geometry" />
        </mxCell>
        <mxCell id="wfsq0a6jWM2ucOWFd4YF-2" value="&lt;b&gt;Sourcing APP&lt;/b&gt;&lt;div&gt;&lt;br&gt;&lt;/div&gt;&lt;div&gt;SKU will be sourced from warehouse through sourcing App. and we will keep the data in s3 and database as well.&lt;/div&gt;" style="rounded=1;whiteSpace=wrap;html=1;fillColor=none;" parent="1" vertex="1">
          <mxGeometry x="110" y="260" width="200" height="130" as="geometry" />
        </mxCell>
        <mxCell id="wfsq0a6jWM2ucOWFd4YF-9" value="" style="edgeStyle=orthogonalEdgeStyle;rounded=0;orthogonalLoop=1;jettySize=auto;html=1;" parent="1" source="wfsq0a6jWM2ucOWFd4YF-6" target="wfsq0a6jWM2ucOWFd4YF-8" edge="1">
          <mxGeometry relative="1" as="geometry" />
        </mxCell>
        <mxCell id="wfsq0a6jWM2ucOWFd4YF-6" value="&lt;b&gt;Data Cleaning&lt;/b&gt;&lt;div&gt;&lt;br&gt;&lt;/div&gt;&lt;div&gt;The sourced date will be assign to a sorter for the data cleaning, here the user can rename, accept and reject the sourced images&lt;/div&gt;" style="rounded=1;whiteSpace=wrap;html=1;fillColor=none;" parent="1" vertex="1">
          <mxGeometry x="110" y="470" width="200" height="130" as="geometry" />
        </mxCell>
        <mxCell id="wfsq0a6jWM2ucOWFd4YF-11" value="" style="edgeStyle=orthogonalEdgeStyle;rounded=0;orthogonalLoop=1;jettySize=auto;html=1;" parent="1" source="wfsq0a6jWM2ucOWFd4YF-8" target="wfsq0a6jWM2ucOWFd4YF-10" edge="1">
          <mxGeometry relative="1" as="geometry" />
        </mxCell>
        <mxCell id="wfsq0a6jWM2ucOWFd4YF-8" value="&lt;b&gt;Bucketization&lt;/b&gt;&lt;div&gt;&lt;br&gt;&lt;/div&gt;&lt;div&gt;After the data cleaning the data will come for bucketization, the user can sort the images with different criteria.&lt;/div&gt;" style="rounded=1;whiteSpace=wrap;html=1;fillColor=none;" parent="1" vertex="1">
          <mxGeometry x="110" y="680" width="200" height="130" as="geometry" />
        </mxCell>
        <mxCell id="wfsq0a6jWM2ucOWFd4YF-13" value="" style="edgeStyle=orthogonalEdgeStyle;rounded=0;orthogonalLoop=1;jettySize=auto;html=1;entryX=0;entryY=0.5;entryDx=0;entryDy=0;" parent="1" source="wfsq0a6jWM2ucOWFd4YF-10" target="wfsq0a6jWM2ucOWFd4YF-12" edge="1">
          <mxGeometry relative="1" as="geometry" />
        </mxCell>
        <mxCell id="wfsq0a6jWM2ucOWFd4YF-10" value="&lt;b&gt;Manual Annotation&lt;/b&gt;&lt;br&gt;&lt;div&gt;&lt;br&gt;&lt;/div&gt;&lt;div&gt;The sorted data will come for annotation, only good images will be allotted for the annotation.&lt;/div&gt;" style="rounded=1;whiteSpace=wrap;html=1;fillColor=none;" parent="1" vertex="1">
          <mxGeometry x="110" y="890" width="200" height="130" as="geometry" />
        </mxCell>
        <mxCell id="wfsq0a6jWM2ucOWFd4YF-15" value="" style="edgeStyle=orthogonalEdgeStyle;rounded=0;orthogonalLoop=1;jettySize=auto;html=1;" parent="1" source="wfsq0a6jWM2ucOWFd4YF-12" target="wfsq0a6jWM2ucOWFd4YF-14" edge="1">
          <mxGeometry relative="1" as="geometry" />
        </mxCell>
        <mxCell id="wfsq0a6jWM2ucOWFd4YF-12" value="&lt;b&gt;Draw Bounding Box&lt;/b&gt;&lt;br&gt;&lt;div&gt;&lt;br&gt;&lt;/div&gt;&lt;div&gt;After the annotated data, we will get a json file, from this json file will draw the bounding box and images were kept in s3 bucket.&lt;/div&gt;" style="rounded=1;whiteSpace=wrap;html=1;fillColor=none;" parent="1" vertex="1">
          <mxGeometry x="490" y="110" width="200" height="130" as="geometry" />
        </mxCell>
        <mxCell id="wfsq0a6jWM2ucOWFd4YF-17" value="" style="edgeStyle=orthogonalEdgeStyle;rounded=0;orthogonalLoop=1;jettySize=auto;html=1;" parent="1" source="wfsq0a6jWM2ucOWFd4YF-14" target="wfsq0a6jWM2ucOWFd4YF-16" edge="1">
          <mxGeometry relative="1" as="geometry" />
        </mxCell>
        <mxCell id="wfsq0a6jWM2ucOWFd4YF-14" value="&lt;b&gt;Annotation Sorting&lt;/b&gt;&lt;br&gt;&lt;div&gt;&lt;br&gt;&lt;/div&gt;&lt;div&gt;After the bounding box drawing, those images will be sent for sorting to review the annotation,&lt;/div&gt;" style="rounded=1;whiteSpace=wrap;html=1;fillColor=none;" parent="1" vertex="1">
          <mxGeometry x="490" y="320" width="200" height="130" as="geometry" />
        </mxCell>
        <mxCell id="wfsq0a6jWM2ucOWFd4YF-19" value="" style="edgeStyle=orthogonalEdgeStyle;rounded=0;orthogonalLoop=1;jettySize=auto;html=1;" parent="1" source="wfsq0a6jWM2ucOWFd4YF-16" target="wfsq0a6jWM2ucOWFd4YF-18" edge="1">
          <mxGeometry relative="1" as="geometry" />
        </mxCell>
        <mxCell id="wfsq0a6jWM2ucOWFd4YF-16" value="&lt;b&gt;Filter the json&lt;/b&gt;&lt;br&gt;&lt;div&gt;&lt;br&gt;&lt;/div&gt;&lt;div&gt;After the annotation sorting we will get good annotation data, from this data will do a filtering to json with filename and generate a good json file.&lt;/div&gt;" style="rounded=1;whiteSpace=wrap;html=1;fillColor=none;" parent="1" vertex="1">
          <mxGeometry x="490" y="530" width="200" height="130" as="geometry" />
        </mxCell>
        <mxCell id="wfsq0a6jWM2ucOWFd4YF-21" value="" style="edgeStyle=orthogonalEdgeStyle;rounded=0;orthogonalLoop=1;jettySize=auto;html=1;entryX=0.5;entryY=0;entryDx=0;entryDy=0;" parent="1" source="wfsq0a6jWM2ucOWFd4YF-18" target="wfsq0a6jWM2ucOWFd4YF-22" edge="1">
          <mxGeometry relative="1" as="geometry">
            <mxPoint x="590" y="975" as="targetPoint" />
          </mxGeometry>
        </mxCell>
        <mxCell id="wfsq0a6jWM2ucOWFd4YF-18" value="&lt;b&gt;Finalized json&lt;/b&gt;&lt;br&gt;&lt;div&gt;&lt;br&gt;&lt;/div&gt;&lt;div&gt;After all filteration json file will be kept in a table and images will be copied to google bucket.&lt;/div&gt;" style="rounded=1;whiteSpace=wrap;html=1;fillColor=none;" parent="1" vertex="1">
          <mxGeometry x="490" y="740" width="200" height="130" as="geometry" />
        </mxCell>
        <mxCell id="wfsq0a6jWM2ucOWFd4YF-22" value="Stop" style="ellipse;whiteSpace=wrap;html=1;fillColor=none;" parent="1" vertex="1">
          <mxGeometry x="520" y="930" width="140" height="80" as="geometry" />
        </mxCell>
        <mxCell id="doWPRlmPh3jJ0f2aw0ji-1" value="High Leavel Diagram" style="text;html=1;align=center;verticalAlign=middle;resizable=0;points=[];autosize=1;strokeColor=none;fillColor=none;" vertex="1" parent="1">
          <mxGeometry x="344" y="1080" width="140" height="30" as="geometry" />
        </mxCell>
      </root>
    </mxGraphModel>
  </diagram>
</mxfile>
